# xmcd
#
# Track frame offsets:
#	150
#	80319
#	147001
#	182091
#	188881
#	202945
#	282054
#
# Disc length: 4411 seconds
#
# Revision: 1
# Processed by: cddbd v1.5.2PL0 Copyright (c) Steve Scherf et al.
# Submitted via: audiograbber 1.83.01
#
DISCID=57113907
DTITLE=Grateful Dead - 72-12-12 Winterland Arena, San Francisco CA
DYEAR=1900
DGENRE=
TTITLE0=Playing In The Band
TTITLE1=He's Gone
TTITLE2=Truckin'
TTITLE3=Nobody's Fault But Mine Jam
TTITLE4=Drums and Bass
TTITLE5=The Other One
TTITLE6=Sing Me Back Home
EXTD=
EXTT0=
EXTT1=
EXTT2=
EXTT3=
EXTT4=
EXTT5=
EXTT6=
PLAYORDER=
